<?xml version="1.0" encoding="UTF-8"?>
<svg width="16px" height="16px" viewBox="0 0 16 16" version="1.1" xmlns="http://www.w3.org/2000/svg" xmlns:xlink="http://www.w3.org/1999/xlink">
    <title>02-左侧导航/图标/人机可视化-默认</title>
    <g id="02-左侧导航/图标/人机可视化-默认" stroke="none" stroke-width="1" fill="none" fill-rule="evenodd">
        <rect id="矩形" x="0" y="0" width="16" height="16"></rect>
        <g id="编组-6" transform="translate(0.300000, 1.300000)">
            <path d="M7.7,9.04347826 C8.05438271,9.04347826 8.34725823,9.30682188 8.39360983,9.64849241 L9.4,9.74347826 L9.4,11.8304348 C9.4,12.2170341 8.08659932,12.5304348 7.7,12.5304348 C7.34561729,12.5304348 6.05274177,12.2670912 6.00639017,11.9254206 L6,11.8304348 L6,9.74347826 C6,9.35687894 7.31340068,9.04347826 7.7,9.04347826 Z" id="路径" fill="#485AA9" fill-rule="nonzero"></path>
            <path d="M11.9,11.826087 C12.2865993,11.826087 12.6,12.1394876 12.6,12.526087 C12.6,12.8804697 12.3366564,13.1733452 11.9949859,13.2196968 L11.9,13.226087 L3.5,13.226087 C3.11340068,13.226087 2.8,12.9126863 2.8,12.526087 C2.8,12.1717042 3.06334362,11.8788287 3.40501415,11.8324771 L3.5,11.826087 L11.9,11.826087 Z" id="路径" fill="#9EA7D1" fill-rule="nonzero"></path>
            <path d="M14.7,-5.68434189e-14 L0.7,-5.68434189e-14 C0.313400675,-5.68434189e-14 0,0.313400675 0,0.7 L0,9.74347826 C0,10.1300776 0.313400675,10.4434783 0.7,10.4434783 L14.7,10.4434783 C15.0865993,10.4434783 15.4,10.1300776 15.4,9.74347826 L15.4,0.7 C15.4,0.313400675 15.0865993,-5.68434189e-14 14.7,-5.68434189e-14 Z" id="路径" fill="#9EA7D1" fill-rule="nonzero"></path>
            <line x1="4.9" y1="5.9173913" x2="4.9" y2="7.30869565" id="路径" stroke="#0E258E" stroke-width="1.4" stroke-linecap="round" stroke-linejoin="round"></line>
            <line x1="7.7" y1="4.52608696" x2="7.7" y2="7.30869565" id="路径" stroke="#0E258E" stroke-width="1.4" stroke-linecap="round" stroke-linejoin="round"></line>
            <line x1="10.5" y1="3.13478261" x2="10.5" y2="7.30869565" id="路径" stroke="#0E258E" stroke-width="1.4" stroke-linecap="round" stroke-linejoin="round"></line>
        </g>
    </g>
</svg>